inDegrees=no
num_controls=7
num_derivatives=13
num_iterations=165
num_multipliers=7
num_parameters=0
num_slacks=7
num_states=26
objective=6.523125
objective_accelerations=0.656970
objective_balance=0.084137
objective_effort=0.540032
objective_height=5.217773
objective_ligament=0.024213
solver_duration=1431.837397
status=Solve_Succeeded
success=true
DataType=double
version=3
OpenSimVersion=4.4-2022-07-23-0e9fedc
endheader
time	/jointset/ground_pelvis/pelvis_tilt/value	/jointset/ground_pelvis/pelvis_tx/value	/jointset/ground_pelvis/pelvis_ty/value	/jointset/hip_r/hip_flexion_r/value	/jointset/hip_r/hip_adduction_r/value	/jointset/hip_r/hip_rotation_r/value	/jointset/back/lumbar_extension/value	/jointset/patellofemoral_r/patellar_flexion_r/value	/jointset/knee_r/knee_flexion_r/value	/jointset/knee_r/knee_adduction_r/value	/jointset/knee_r/knee_rotation_r/value	/jointset/ankle_r/ankle_angle_r/value	/jointset/subtalar_r/subtalar_angle_r/value	/jointset/ground_pelvis/pelvis_tilt/speed	/jointset/ground_pelvis/pelvis_tx/speed	/jointset/ground_pelvis/pelvis_ty/speed	/jointset/hip_r/hip_flexion_r/speed	/jointset/hip_r/hip_adduction_r/speed	/jointset/hip_r/hip_rotation_r/speed	/jointset/back/lumbar_extension/speed	/jointset/patellofemoral_r/patellar_flexion_r/speed	/jointset/knee_r/knee_flexion_r/speed	/jointset/knee_r/knee_adduction_r/speed	/jointset/knee_r/knee_rotation_r/speed	/jointset/ankle_r/ankle_angle_r/speed	/jointset/subtalar_r/subtalar_angle_r/speed	/forceset/tau_hip_flexion_r	/forceset/tau_hip_adduction_r	/forceset/tau_hip_rotation_r	/forceset/tau_knee_flexion_r	/forceset/tau_ankle_angle_r	/forceset/tau_subtalar_angle_r	/forceset/tau_lumbar_extension	lambda_cid13_p0	lambda_cid14_p0	lambda_cid14_p1	lambda_cid14_p2	lambda_cid14_p3	lambda_cid14_p4	lambda_cid14_p5	/jointset/ground_pelvis/pelvis_tilt/accel	/jointset/ground_pelvis/pelvis_tx/accel	/jointset/ground_pelvis/pelvis_ty/accel	/jointset/hip_r/hip_flexion_r/accel	/jointset/hip_r/hip_adduction_r/accel	/jointset/hip_r/hip_rotation_r/accel	/jointset/back/lumbar_extension/accel	/jointset/patellofemoral_r/patellar_flexion_r/accel	/jointset/knee_r/knee_flexion_r/accel	/jointset/knee_r/knee_adduction_r/accel	/jointset/knee_r/knee_rotation_r/accel	/jointset/ankle_r/ankle_angle_r/accel	/jointset/subtalar_r/subtalar_angle_r/accel	gamma_cid13_p0	gamma_cid14_p0	gamma_cid14_p1	gamma_cid14_p2	gamma_cid14_p3	gamma_cid14_p4	gamma_cid14_p5
0.5	-0.1861255429008633	0.02495091939665445	0.821777796604143	0.9151355065725935	-0.2458013197970351	-0.08062592200844505	-0.3293961887274383	0.8375301181245851	0.8375301181245595	0.0666000809618051	0.174492630329429	0.2795138026378359	0.0389719492389712	-0.4949646740828831	-0.1527122883119506	-0.4964933498336515	2.028827179162284	-0.01436900225518204	0.4111709616503491	-0.5973271890922397	2.050528709287172	2.050528709286538	-0.2018146240167856	-0.0002557304972110835	0.6133516388456561	0.1400913675455797	-0.1325823284854451	-0.01646115645485438	0.01605553921702578	-0.3444308551993374	0.05661220793018736	-0.006533495169993272	0.1721657264318478	-23.0187671866669	-23.12111243074068	-3.224413977696204	-3.208196854624966	3.992705438370244	-659.2530871184272	58.89013752265173	0.2844139582792056	0.4089454647822472	-0.4952170231095228	-1.11921002395665	0.1365173222239731	-0.4851891355748656	1.556866393183909	-1.488204509703182	-1.488204509703178	0.3910737230369974	-0.03291621588400848	-0.758433718060473	0.08585944321027246	-1.896503626471582e-07	-1.477309842838923e-07	1.682979795528116e-06	-1.00865104521606e-06	-9.723042043692882e-08	-2.44934943089436e-07	1.168832922822689e-06
0.51	-0.1910599544007231	0.02344447565801656	0.8167892657141592	0.9353644474652598	-0.2459390963104492	-0.07653923646429472	-0.3352911417927195	0.8579579295497947	0.8579579295497962	0.06460291792632969	0.1744900086752872	0.2856082061459425	0.04037564189587006	-0.4918478214153177	-0.148557374551124	-0.501097578868267	2.016681315577007	-0.01319140293493258	0.4061353067453043	-0.5815859885139882	2.034745558834414	2.03474555883433	-0.1976176672200587	-0.0002628354723862686	0.6054426801280585	0.140619598950147	-0.1397282617257824	-0.01491063343799944	0.01643526073485793	-0.3480539678476239	0.05300863654310154	-0.005438680619316946	0.1784616296198768	-21.70228630085862	-24.4983315253255	-3.096741795801403	-3.106714316196029	4.446165703233176	-664.2413827434422	59.09922084111462	0.3357767369555991	0.4216086245578681	-0.4257858415757755	-1.304245421597049	0.1075839023136013	-0.5176340533656043	1.594362207273636	-1.666535815640536	-1.666535815558196	0.4342577666459292	0.01609407183319287	-0.8201236193589869	0.03230758282414197	-1.802021165622861e-07	-1.456103746676063e-07	1.550290207155418e-06	-9.937856903301119e-07	-8.44602584974437e-08	-2.338792636673932e-07	1.083588132757158e-06
0.52	-0.1959611062107167	0.02198014991555227	0.8117581405342429	0.9554635355429183	-0.2460652562975856	-0.0725038835462827	-0.3410263597887911	0.8782192763699606	0.8782192763699918	0.06264777468052972	0.1744874563134118	0.2916209207327221	0.04178381738556249	-0.4883127361093334	-0.1442886890772311	-0.5050122078203975	2.002856616160375	-0.01204569699912614	0.4009044364244024	-0.5653801752506145	2.017235788278504	2.017235788278968	-0.1934106660770925	-0.0002418720408627351	0.5970138545804781	0.1409879341044728	-0.1468741949661112	-0.01336011042122677	0.01681498225276692	-0.3516770804959187	0.04940506515598548	-0.00434386606876009	0.1847575328079302	-20.38227987851111	-25.88117877886398	-2.964370048974778	-3.012475156311273	4.899344485855688	-669.320562741862	59.38176483632248	0.3680604859629576	0.4316998073955913	-0.3572970066124954	-1.454977190227798	0.1301386453353209	-0.5242322187463496	1.6497889302082	-1.833528530333693	-1.833528530333699	0.3930825922849349	-0.0273025345440917	-0.8624070840569461	0.05388019316188164	-1.70152259362864e-07	-1.444121017953713e-07	1.411300069086884e-06	-9.785140265002518e-07	-6.885242353613408e-08	-2.276535697623839e-07	9.931005677568052e-07
0.53	-0.200824841631141	0.02055901562693151	0.8066913596133763	0.9754161265031066	-0.2461800597142161	-0.0685215302365207	-0.3465973989727953	0.8982970572509699	0.8982970572509782	0.06073475099307526	0.1744850110773039	0.2975468450175433	0.04319494219051595	-0.484367679244092	-0.1399248263215626	-0.5082252507494553	1.987393698966973	-0.01092077625064775	0.3955407622634224	-0.5487672386597887	1.998048341125162	1.99804834112535	-0.1891927666346273	-0.0002433147121004497	0.5880925484834608	0.1412086985964541	-0.153871494766007	-0.01189331652843361	0.0171807731125879	-0.3554512725435126	0.04599686587442287	-0.003426479902571927	0.1909042808607952	-19.06708744477161	-27.2134000619705	-2.912329979423463	-2.891563070565436	5.36026491015174	-674.4417689670038	59.54757906823058	0.4177144140762626	0.4407187277966889	-0.28554397225972	-1.63214831726285	0.1027473216497414	-0.5464838190341627	1.676109456706934	-2.002126852393349	-2.002126852434807	0.4365075426128076	0.01385422908288085	-0.918793673659144	0.00202212689901636	-1.607692258439586e-07	-1.416236437736017e-07	1.27939826908865e-06	-9.603641025152704e-07	-5.601217668820673e-08	-2.171438081665062e-07	9.036589898856021e-07
